<?xml version="1.0" standalone="no"?>
<!DOCTYPE svg PUBLIC "-//W3C//DTD SVG 20010904//EN"
 "http://www.w3.org/TR/2001/REC-SVG-20010904/DTD/svg10.dtd">
<svg version="1.0" xmlns="http://www.w3.org/2000/svg"
 width="323.000000pt" height="400.000000pt" viewBox="0 0 323.000000 400.000000"
 preserveAspectRatio="xMidYMid meet">
<metadata>
Created by potrace 1.13, written by Peter Selinger 2001-2015
</metadata>
<g transform="translate(0.000000,400.000000) scale(0.100000,-0.100000)"
fill="#1474BB" stroke="none">
<path d="M2413 3985 c-98 -30 -187 -107 -212 -186 -6 -19 -12 -63 -12 -96 -3
-227 287 -382 514 -275 120 56 179 148 173 267 -5 87 -24 131 -78 188 -78 79
-161 114 -279 114 -35 1 -83 -5 -106 -12z"/>
<path d="M225 3841 c-71 -23 -105 -43 -148 -90 -151 -163 -68 -405 166 -484
73 -25 197 -18 267 15 120 54 183 144 184 258 0 135 -87 247 -228 294 -70 24
-180 27 -241 7z"/>
<path d="M1016 3205 c-110 -28 -166 -117 -130 -204 31 -73 94 -112 191 -117
104 -5 171 33 197 111 23 67 -19 158 -89 191 -53 24 -118 32 -169 19z"/>
<path d="M2455 3118 c-50 -11 -105 -48 -128 -87 -16 -28 -24 -96 -15 -131 11
-43 68 -109 95 -110 6 0 13 -5 15 -10 2 -6 32 -14 68 -18 50 -6 75 -4 108 8
161 60 172 250 17 325 -59 29 -105 35 -160 23z"/>
<path d="M1585 2811 c-143 -65 -138 -246 8 -319 122 -62 280 1 302 119 28 150
-157 270 -310 200z"/>
<path d="M2430 2519 c-42 -3 -87 -10 -100 -15 -14 -4 -31 -9 -39 -10 -7 -1
-50 -20 -95 -42 -138 -68 -235 -174 -282 -311 -32 -94 -28 -240 8 -328 77
-186 225 -312 437 -374 76 -22 223 -30 306 -17 238 40 426 196 484 403 3 11 5
72 6 135 l0 115 -42 86 c-83 170 -226 284 -420 337 -37 10 -93 20 -123 21 -30
2 -57 4 -60 5 -3 1 -39 -1 -80 -5z"/>
<path d="M395 2226 c-90 -29 -162 -88 -197 -164 -29 -60 -29 -161 -2 -222 102
-225 448 -277 604 -90 125 150 71 360 -118 451 -58 28 -80 33 -157 35 -54 2
-106 -2 -130 -10z"/>
<path d="M1312 2105 c-54 -26 -76 -47 -95 -95 -34 -87 5 -179 95 -224 40 -20
63 -24 118 -23 58 2 75 7 112 32 52 37 78 85 78 145 0 135 -174 228 -308 165z"/>
<path d="M1778 1525 c-2 -2 -17 -5 -34 -8 -69 -11 -141 -71 -153 -129 -26
-126 72 -232 214 -231 68 0 110 18 156 65 31 33 36 48 43 110 7 76 -69 159
-167 182 -31 7 -58 12 -59 11z"/>
<path d="M2414 1242 c-97 -49 -137 -161 -87 -242 93 -152 348 -135 392 26 22
80 -14 153 -101 209 -37 23 -164 28 -204 7z"/>
<path d="M1075 1069 c-67 -25 -122 -66 -154 -113 -41 -62 -48 -86 -49 -158 -1
-180 164 -320 368 -312 108 4 172 29 238 93 172 168 73 438 -182 500 -66 16
-164 12 -221 -10z"/>
<path d="M2377 612 c-263 -67 -306 -351 -73 -487 86 -50 227 -66 321 -36 122
39 218 162 200 258 -15 88 -26 110 -84 175 -67 76 -246 121 -364 90z"/>
</g>
</svg>
