<?xml version="1.0" standalone="no"?>
<!DOCTYPE svg PUBLIC "-//W3C//DTD SVG 20010904//EN"
 "http://www.w3.org/TR/2001/REC-SVG-20010904/DTD/svg10.dtd">
<svg version="1.0" xmlns="http://www.w3.org/2000/svg"
 width="410.000000pt" height="350.000000pt" viewBox="0 0 410.000000 350.000000"
 preserveAspectRatio="xMidYMid meet">
<metadata>
Created by potrace 1.13, written by Peter Selinger 2001-2015
</metadata>
<g transform="translate(0.000000,350.000000) scale(0.100000,-0.100000)"
fill="#000000" stroke="none">
<path d="M2370 3301 c-94 -33 -140 -61 -214 -131 -111 -104 -137 -158 -311
-635 -38 -104 -106 -284 -130 -345 -7 -19 -26 -68 -41 -108 -15 -40 -31 -75
-35 -78 -5 -3 -46 8 -91 25 -128 45 -168 62 -168 73 0 5 20 35 44 66 95 123
146 272 146 426 -1 108 -11 160 -50 241 -77 160 -263 292 -486 344 -114 26
-209 27 -308 1 -145 -37 -239 -106 -331 -244 -96 -144 -140 -297 -133 -455 6
-117 33 -201 94 -287 102 -145 190 -194 599 -339 88 -31 221 -79 295 -107 74
-27 185 -68 245 -90 61 -22 152 -55 203 -74 125 -47 144 -50 163 -27 9 10 31
59 48 108 18 50 49 133 68 185 19 52 44 120 55 150 11 30 26 69 33 85 7 17 21
51 30 78 10 26 24 47 31 47 8 0 40 -20 71 -44 244 -187 565 -193 781 -13 174
144 283 426 252 649 -21 146 -64 232 -166 327 -183 171 -485 246 -694 172z
m329 -396 c81 -45 120 -132 100 -226 -30 -138 -124 -261 -210 -274 -56 -8
-128 8 -182 41 -53 33 -97 74 -97 90 0 18 76 211 109 274 57 113 174 152 280
95z m-1764 -146 c110 -20 223 -96 246 -166 26 -79 -21 -228 -90 -286 -36 -30
-43 -28 -194 30 -149 57 -192 85 -223 146 -37 71 -7 191 62 244 54 41 106 49
199 32z"/>
<path d="M2152 2038 c-5 -7 -17 -33 -25 -58 -23 -67 -146 -402 -157 -425 -5
-11 -21 -54 -35 -95 -14 -42 -30 -82 -35 -90 -10 -17 -6 -19 -95 49 -116 88
-250 131 -410 131 -109 0 -189 -19 -270 -65 -282 -161 -421 -583 -290 -880 65
-148 189 -247 400 -321 74 -26 91 -28 236 -29 l155 0 86 42 c70 35 100 58 160
122 100 107 129 162 243 476 20 55 52 141 71 190 18 50 67 179 108 289 41 109
79 203 85 209 7 7 30 3 73 -12 35 -13 91 -32 126 -44 36 -12 62 -27 62 -35 0
-8 -17 -33 -38 -57 -49 -56 -95 -148 -128 -255 -35 -115 -37 -246 -5 -342 62
-188 239 -345 460 -408 327 -95 608 20 745 303 52 107 86 222 86 289 0 26 5
50 10 53 7 4 7 12 0 25 -5 10 -10 36 -10 57 0 21 -7 60 -15 87 -50 166 -161
286 -340 370 -57 27 -88 39 -280 106 -44 16 -136 49 -205 75 -69 26 -136 50
-150 55 -14 4 -88 31 -165 59 -77 29 -151 56 -165 61 -14 5 -69 25 -122 44
-102 38 -149 44 -166 24z m855 -742 c21 -8 75 -26 120 -40 107 -34 171 -73
206 -124 52 -77 45 -161 -20 -233 -45 -50 -90 -69 -162 -69 -135 0 -281 83
-312 177 -24 74 8 187 76 262 42 46 41 46 92 27z m-1432 -155 c72 -33 125 -76
125 -101 0 -37 -88 -260 -122 -307 -43 -60 -98 -93 -158 -93 -137 1 -232 127
-200 269 28 124 102 226 187 256 47 17 91 11 168 -24z"/>
</g>
</svg>
